<?xml version="1.0" standalone="no"?>
<!DOCTYPE svg PUBLIC "-//W3C//DTD SVG 20010904//EN"
 "http://www.w3.org/TR/2001/REC-SVG-20010904/DTD/svg10.dtd">
<svg version="1.0" xmlns="http://www.w3.org/2000/svg"
 width="1920.000000pt" height="1920.000000pt" viewBox="0 0 1920.000000 1920.000000"
 preserveAspectRatio="xMidYMid meet">

<g transform="translate(0.000000,1920.000000) scale(0.100000,-0.100000)"
fill="#000000" stroke="none">
<path d="M9859 14850 c-28 -8 -82 -43 -369 -240 -164 -112 -1311 -896 -1747
-1194 -90 -61 -248 -169 -353 -241 -104 -71 -265 -181 -357 -244 -92 -63 -247
-169 -343 -235 l-175 -121 -580 -6 c-562 -5 -582 -6 -653 -27 -233 -71 -422
-228 -527 -437 -52 -104 -71 -173 -86 -305 -6 -63 -9 -1207 -7 -3410 3 -3123
5 -3319 21 -3387 39 -159 108 -285 221 -401 117 -121 246 -194 422 -239 65
-17 282 -18 4064 -18 3301 0 4006 2 4060 13 326 68 557 278 657 597 l28 90 5
779 5 780 46 11 c124 32 240 128 300 250 l34 70 3 795 c2 772 2 797 -18 861
-44 146 -188 277 -334 305 l-35 6 -3 782 -3 781 -28 90 c-80 257 -255 451
-493 546 -132 53 -180 59 -506 59 l-298 0 0 280 c0 318 -10 442 -46 550 -104
312 -374 533 -704 574 l-95 12 -43 124 c-221 638 -294 846 -303 862 -16 30
-70 58 -112 58 -20 0 -148 -34 -283 -76 -135 -42 -249 -72 -254 -68 -4 5 -94
128 -201 274 -856 1176 -779 1074 -828 1093 -46 19 -45 19 -82 7z m160 -533
c234 -320 442 -605 563 -770 59 -81 109 -152 111 -158 1 -6 -34 -22 -78 -35
-44 -14 -258 -81 -475 -149 -217 -68 -570 -178 -785 -245 -214 -67 -568 -177
-785 -245 -217 -68 -577 -180 -800 -250 -223 -70 -547 -171 -720 -225 -173
-54 -466 -146 -650 -203 -184 -58 -336 -104 -338 -103 -1 2 21 19 50 39 98 66
342 232 553 377 116 79 293 201 395 270 302 206 781 533 1535 1048 391 267
807 551 925 632 118 81 242 166 274 189 33 22 62 41 65 41 3 -1 76 -96 160
-213z m1409 -1024 c52 -147 191 -548 262 -753 49 -140 120 -347 159 -459 39
-112 71 -205 71 -207 0 -2 -1155 -4 -2567 -3 l-2568 0 220 70 c121 38 337 106
480 150 143 44 386 120 540 169 298 94 766 240 1030 322 88 27 302 94 475 148
173 54 495 155 715 224 220 68 571 179 780 244 209 66 383 121 387 121 3 1 10
-11 16 -26z m-5334 -1002 c-5 -5 -159 -111 -342 -236 -183 -125 -340 -239
-349 -252 -23 -34 -22 -111 2 -146 40 -62 -237 -57 3411 -57 l3337 0 33 20
c21 14 39 36 50 66 20 54 23 45 -91 372 -42 123 -75 226 -72 228 3 3 36 -6 75
-19 171 -60 309 -203 365 -382 21 -66 22 -88 22 -395 l0 -325 -3560 0 -3560 0
-70 22 c-190 60 -341 215 -390 399 -9 32 -16 98 -16 146 -1 159 51 281 170
398 85 84 169 132 274 155 72 15 728 21 711 6z m-1051 -1260 c68 -46 159 -87
252 -113 l80 -23 4025 -5 4025 -5 65 -25 c174 -68 295 -197 356 -380 17 -51
19 -109 22 -812 l3 -758 -1003 0 c-612 0 -1030 -4 -1073 -10 -254 -37 -475
-196 -585 -424 -78 -160 -80 -181 -80 -721 0 -495 4 -548 52 -669 67 -171 212
-326 384 -408 161 -77 69 -72 1244 -78 l1055 -5 3 -723 c2 -811 3 -805 -67
-947 -62 -126 -189 -236 -326 -283 -47 -16 -297 -17 -4050 -20 -3553 -2 -4006
0 -4060 13 -196 50 -349 199 -413 405 -15 51 -17 261 -19 3050 -2 1647 -1
3001 2 3009 4 11 12 9 33 -11 15 -14 48 -39 75 -57z m9082 -2402 c63 -18 120
-82 134 -150 8 -40 11 -254 9 -760 l-3 -704 -24 -42 c-27 -46 -60 -74 -110
-91 -47 -16 -2256 -17 -2333 -1 -178 37 -334 185 -380 358 -15 57 -17 124 -17
508 -1 289 3 460 10 495 42 197 212 357 414 388 84 13 2254 12 2300 -1z"/>
<path d="M12191 8225 c-153 -43 -281 -162 -331 -309 -109 -320 123 -646 461
-646 356 0 589 373 435 694 -55 113 -157 206 -274 249 -75 27 -217 32 -291 12z
m189 -265 c85 -24 151 -113 151 -205 0 -147 -144 -251 -282 -203 -149 51 -193
242 -82 350 64 62 132 81 213 58z"/>
</g>
</svg>
